<?xml version="1.0" encoding="UTF-8"?>
<svg version="1.1" xmlns="http://www.w3.org/2000/svg" width="512" height="512">
<path d="M0 0 C7.93878924 6.15869507 15.00309593 13.75539153 22.12524414 20.83007812 C23.34153967 22.03473995 24.56231742 23.23489173 25.78735352 24.43066406 C27.58561368 26.18620511 29.37020245 27.95467774 31.15234375 29.7265625 C31.69608139 30.25279205 32.23981903 30.77902161 32.80003357 31.32119751 C36.99560859 35.54093211 39.86335108 39.78875027 40.125 45.9375 C36.77020578 55.06999538 26.76803252 62.36227019 19.94140625 69.15625 C18.78533837 70.31044894 17.62949394 71.46487172 16.47386169 72.61950684 C13.4561667 75.63341408 10.43547913 78.64430403 7.41412354 81.65454102 C4.32176853 84.73660074 1.23230132 87.82155233 -1.85742188 90.90625 C-7.90215112 96.94030804 -13.95005006 102.97117643 -20 109 C-18.99353038 109.00089563 -18.99353038 109.00089563 -17.96672803 109.00180936 C21.78177594 109.03768632 61.53020184 109.0942991 101.2786353 109.17792095 C106.04895643 109.18793867 110.8192779 109.19778276 115.58959961 109.20751953 C117.01415553 109.21043159 117.01415553 109.21043159 118.46749035 109.21340248 C133.85444199 109.24444201 149.24137871 109.26140858 164.62835576 109.27319422 C180.41130576 109.28559567 196.1941773 109.31307428 211.97707778 109.35461307 C221.71967351 109.37977733 231.46213917 109.39311515 241.20476786 109.39142957 C247.88140228 109.39139987 254.557904 109.4059863 261.23448672 109.43216428 C265.08927131 109.44684368 268.94378375 109.45498478 272.79859161 109.44580269 C276.97472741 109.43602328 281.15013991 109.45697385 285.32621765 109.48101807 C287.16035368 109.46937744 287.16035368 109.46937744 289.03154296 109.45750165 C297.21762679 109.54134617 297.21762679 109.54134617 301.21115303 111.8824873 C304.60869656 115.90426317 305.24997587 119.44002569 305.2746582 124.61303711 C305.28419022 125.71445541 305.29372223 126.81587372 305.30354309 127.95066833 C305.30217598 129.72112267 305.30217598 129.72112267 305.30078125 131.52734375 C305.30506638 132.74901749 305.3093515 133.97069122 305.31376648 135.22938538 C305.31950466 137.81071351 305.32001382 140.39205781 305.31567383 142.97338867 C305.3125145 146.91938904 305.33597863 150.8646392 305.36132812 154.81054688 C305.36360124 157.32031156 305.36430456 159.83007825 305.36328125 162.33984375 C305.372491 163.51812241 305.38170074 164.69640106 305.39118958 165.91038513 C305.331248 176.5400083 305.331248 176.5400083 302 181 C298.37880227 183.59917484 295.88274051 184.37597554 291.44967175 184.38476086 C289.78360938 184.39894567 289.78360938 184.39894567 288.08388919 184.41341704 C286.26142601 184.40614568 286.26142601 184.40614568 284.40214539 184.39872742 C283.10747072 184.40537424 281.81279605 184.41202107 280.47888881 184.41886932 C276.88723093 184.43690854 273.29577966 184.4363359 269.70408714 184.43273985 C265.83021247 184.43211649 261.95640743 184.44873145 258.08256531 184.46325684 C251.37151768 184.48605937 244.66052201 184.49793079 237.9494381 184.50238609 C228.24634174 184.50884349 218.54333938 184.53177364 208.84028087 184.55872939 C193.0978795 184.60201525 177.35548208 184.63197173 161.61303711 184.65356445 C146.32037411 184.67456875 131.02774346 184.70183905 115.73510742 184.73754883 C114.79253044 184.73974765 113.84995345 184.74194648 112.87881353 184.74421193 C108.15019994 184.75528145 103.42158665 184.76647428 98.69297349 184.77772844 C59.46201053 184.87093902 20.23103064 184.94252518 -19 185 C-18.30508957 185.68602798 -17.61017914 186.37205597 -16.89421082 187.07887268 C-10.33593643 193.55594231 -3.78833948 200.04363784 2.74904346 206.54179478 C6.11005368 209.88196033 9.47466983 213.21831519 12.84790039 216.54614258 C16.10516124 219.75983539 19.35245716 222.98329658 22.59317589 226.21366692 C23.8291963 227.44231571 25.06872322 228.66744766 26.31183815 229.88891792 C28.05700094 231.60490209 29.78909755 233.33314772 31.51879883 235.06469727 C32.03165436 235.56317169 32.54450989 236.06164612 33.07290649 236.57522583 C37.3647848 240.91675434 39.7853233 245.15553373 40.25 251.3125 C36.95064246 261.04560474 25.70985417 269.47647159 18.48730469 276.69799805 C16.73343135 278.4540896 14.9877621 280.21808551 13.2421875 281.98242188 C12.11507203 283.11246681 10.98748499 284.24204163 9.859375 285.37109375 C9.34469666 285.89295761 8.83001831 286.41482147 8.29974365 286.95249939 C4.314205 290.91307019 0.49698858 294.39134598 -5.3125 294.625 C-8.97944684 294.40365739 -10.77992021 293.75480528 -13.47512817 291.26870728 C-14.16970249 290.6288451 -14.86427681 289.98898293 -15.57989883 289.32973099 C-20.80455419 284.30017204 -25.95546893 279.20139965 -31.08544922 274.07568359 C-32.39352314 272.77224558 -33.70179161 271.46900279 -35.01023865 270.16593933 C-38.54329659 266.64592171 -42.07308496 263.12264399 -45.60185766 259.59833097 C-47.80790798 257.39522131 -50.01453988 255.19269577 -52.22134781 252.990345 C-59.13060901 246.09472857 -66.03788729 239.1971351 -72.94226539 232.29662931 C-80.90558109 224.33780528 -88.87541419 216.38558403 -96.8509196 208.43897569 C-103.02450462 202.28698373 -109.19233564 196.12926185 -115.35580266 189.96713316 C-119.03427427 186.28971008 -122.71514116 182.61476286 -126.40200424 178.94575119 C-129.86418189 175.50001585 -133.31917385 172.04723642 -136.7687397 168.58887672 C-138.0359744 167.32086994 -139.3057823 166.05542885 -140.57832527 164.7927494 C-142.31394286 163.06980028 -144.04007435 161.33787067 -145.76412964 159.60336304 C-146.52344986 158.85612742 -146.52344986 158.85612742 -147.29810989 158.09379613 C-151.13701932 154.20016981 -152.95887082 151.17984637 -153.0625 145.6875 C-150.23852349 135.88664036 -139.18417886 128.02895983 -132.07568359 120.91455078 C-130.77224558 119.60647686 -129.46900279 118.29820839 -128.16593933 116.98976135 C-124.64592171 113.45670341 -121.12264399 109.92691504 -117.59833097 106.39814234 C-115.39522131 104.19209202 -113.19269577 101.98546012 -110.990345 99.77865219 C-104.09472857 92.86939099 -97.1971351 85.96211271 -90.29662931 79.05773461 C-82.33780528 71.09441891 -74.38558403 63.12458581 -66.43897569 55.1490804 C-60.28698373 48.97549538 -54.12926185 42.80766436 -47.96713316 36.64419734 C-44.28971008 32.96572573 -40.61476286 29.28485884 -36.94575119 25.59799576 C-33.50001585 22.13581811 -30.04723642 18.68082615 -26.58887672 15.2312603 C-25.32086994 13.9640256 -24.05542885 12.6942177 -22.7927494 11.42167473 C-21.06980028 9.68605714 -19.33787067 7.95992565 -17.60336304 6.23587036 C-16.85612742 5.47655014 -16.85612742 5.47655014 -16.09379613 4.70189011 C-11.06847607 -0.25280944 -6.90302408 -2.15012226 0 0 Z " fill="#000000" transform="translate(181,218)"/>
<path d="M0 0 C1.21236328 -0.09474609 1.21236328 -0.09474609 2.44921875 -0.19140625 C11.64386441 2.22955775 19.74813252 13.84252729 26.39794922 20.48681641 C27.70602314 21.79025442 29.01429161 23.09349721 30.32273865 24.39656067 C33.85579659 27.91657829 37.38558496 31.43985601 40.91435766 34.96416903 C43.12040798 37.16727869 45.32703988 39.36980423 47.53384781 41.572155 C54.44310901 48.46777143 61.35038729 55.3653649 68.25476539 62.26587069 C76.21808109 70.22469472 84.18791419 78.17691597 92.1634196 86.12352431 C98.33700462 92.27551627 104.50483564 98.43323815 110.66830266 104.59536684 C114.34677427 108.27278992 118.02764116 111.94773714 121.71450424 115.61674881 C125.17668189 119.06248415 128.63167385 122.51526358 132.0812397 125.97362328 C133.3484744 127.24163006 134.6182823 128.50707115 135.89082527 129.7697506 C137.62644286 131.49269972 139.35257435 133.22462933 141.07662964 134.95913696 C141.58284312 135.45729404 142.0890566 135.95545112 142.61060989 136.46870387 C146.44951932 140.36233019 148.27137082 143.38265363 148.375 148.875 C145.55580719 158.65925741 134.52199403 166.52825841 127.43579102 173.64794922 C126.13724582 174.95604892 124.83886988 176.26431667 123.54064941 177.57273865 C119.30312448 181.84142946 115.06023396 186.10476387 110.81640625 190.3671875 C110.09284022 191.09405085 109.36927419 191.8209142 108.62378192 192.56980371 C101.79513948 199.42918805 94.96446873 206.28654648 88.12893772 213.1390667 C79.40396245 221.88599003 70.68922343 230.64284415 61.98802239 239.4134196 C55.85646424 245.59219535 49.71347576 251.75945816 43.56189865 257.91830266 C39.89219173 261.59296363 36.22771218 265.272506 32.57544136 268.96450424 C29.14354052 272.43325045 25.69770747 275.88752039 22.24069977 279.3312397 C20.97614576 280.59584767 19.71670271 281.86559069 18.46286583 283.14082527 C16.74770961 284.88367253 15.01493769 286.60692012 13.27662659 288.32662964 C12.78720803 288.83284312 12.29778948 289.3390566 11.79354006 289.86060989 C7.84636774 293.70336452 4.61772298 294.71268841 -0.6875 295.5625 C-7.1773705 293.87980681 -11.07719311 289.75770558 -15.703125 285.078125 C-16.44077087 284.34430603 -17.17841675 283.61048706 -17.93841553 282.85443115 C-19.48957988 281.30597913 -21.03574303 279.75250276 -22.57714844 278.19433594 C-24.92998286 275.82008556 -27.30338747 273.46792535 -29.6796875 271.1171875 C-31.18878414 269.60544747 -32.6966394 268.092467 -34.203125 266.578125 C-34.90939026 265.87995667 -35.61565552 265.18178833 -36.34332275 264.46246338 C-40.97421705 259.74281606 -44.5194982 255.51054231 -44.8125 248.625 C-41.45770578 239.49250462 -31.45553252 232.20022981 -24.62890625 225.40625 C-23.47283837 224.25205106 -22.31699394 223.09762828 -21.16136169 221.94299316 C-18.1436667 218.92908592 -15.12297913 215.91819597 -12.10162354 212.90795898 C-9.00926853 209.82589926 -5.91980132 206.74094767 -2.83007812 203.65625 C3.21465112 197.62219196 9.26255006 191.59132357 15.3125 185.5625 C14.64152025 185.56190291 13.9705405 185.56130582 13.27922803 185.56069064 C-26.46927594 185.52481368 -66.21770184 185.4682009 -105.9661353 185.38457905 C-110.73645643 185.37456133 -115.5067779 185.36471724 -120.27709961 185.35498047 C-121.22680355 185.3530391 -122.1765075 185.35109772 -123.15499035 185.34909752 C-138.54194199 185.31805799 -153.92887871 185.30109142 -169.31585576 185.28930578 C-185.09880576 185.27690433 -200.8816773 185.24942572 -216.66457778 185.20788693 C-226.40717351 185.18272267 -236.14963917 185.16938485 -245.89226786 185.17107043 C-252.56890228 185.17110013 -259.245404 185.1565137 -265.92198672 185.13033572 C-269.77677131 185.11565632 -273.63128375 185.10751522 -277.48609161 185.11669731 C-281.66222741 185.12647672 -285.83763991 185.10552615 -290.01371765 185.08148193 C-291.236475 185.08924235 -292.45923235 185.09700277 -293.71904296 185.10499835 C-301.90512679 185.02115383 -301.90512679 185.02115383 -305.89865303 182.6800127 C-309.29619656 178.65823683 -309.93747587 175.12247431 -309.9621582 169.94946289 C-309.97169022 168.84804459 -309.98122223 167.74662628 -309.99104309 166.61183167 C-309.99013168 165.43152878 -309.98922028 164.25122589 -309.98828125 163.03515625 C-309.99256638 161.81348251 -309.9968515 160.59180878 -310.00126648 159.33311462 C-310.00700466 156.75178649 -310.00751382 154.17044219 -310.00317383 151.58911133 C-310.0000145 147.64311096 -310.02347863 143.6978608 -310.04882812 139.75195312 C-310.05110124 137.24218844 -310.05180456 134.73242175 -310.05078125 132.22265625 C-310.059991 131.04437759 -310.06920074 129.86609894 -310.07868958 128.65211487 C-310.01966521 118.18514333 -310.01966521 118.18514333 -306.6875 113.5625 C-303.54247881 110.66861301 -301.46314887 110.18607411 -297.22898483 110.17773914 C-296.11330085 110.1682826 -294.99761686 110.15882606 -293.84812427 110.14908296 C-292.00961898 110.15635432 -292.00961898 110.15635432 -290.13397217 110.16377258 C-288.18099114 110.15380234 -288.18099114 110.15380234 -286.18855596 110.14363068 C-282.57183609 110.1255683 -278.95532115 110.12616692 -275.33856678 110.12976015 C-271.4394529 110.13038291 -267.54040843 110.11377416 -263.6413269 110.09924316 C-256.88497152 110.07642923 -250.12866778 110.06456725 -243.37227631 110.06011391 C-233.60364602 110.05365932 -223.83510921 110.03073416 -214.06651655 110.00377061 C-198.21818563 109.96047372 -182.36985864 109.93052355 -166.52148438 109.90893555 C-151.12498035 109.88793455 -135.72850848 109.86066714 -120.33203125 109.82495117 C-119.38321755 109.82275235 -118.43440385 109.82055352 -117.45683822 109.81828807 C-112.69698585 109.80721863 -107.93713379 109.79602578 -103.17728186 109.78477156 C-63.68071594 109.69154538 -24.18413319 109.61996646 15.3125 109.5625 C14.59031281 108.84697464 13.86812561 108.13144928 13.12405396 107.39424133 C6.31795886 100.64897045 -0.48019401 93.89578506 -7.27065849 87.13477802 C-10.76193026 83.65915973 -14.25593661 80.18638627 -17.75634766 76.7199707 C-21.13455017 73.37437234 -24.50536405 70.02149136 -27.87118912 66.66344261 C-29.15637106 65.38380223 -30.44418995 64.10680457 -31.73467636 62.83251381 C-33.54225427 61.04672358 -35.34021372 59.25175256 -37.13623047 57.4543457 C-37.67138275 56.92997925 -38.20653503 56.40561279 -38.75790405 55.86535645 C-42.65180167 51.938738 -44.54950762 48.90837039 -44.875 43.375 C-41.76615287 33.39396448 -29.97645783 24.69531583 -22.63769531 17.38232422 C-20.79112672 15.54118962 -18.95005973 13.69467138 -17.109375 11.84765625 C-15.93000859 10.66894948 -14.75033265 9.49055231 -13.5703125 8.3125 C-12.75000046 7.48915161 -12.75000046 7.48915161 -11.91311646 6.64916992 C-8.11005944 2.86955943 -5.47487818 0.26643834 0 0 Z " fill="#000000" transform="translate(335.6875,-0.5625)"/>
</svg>
